<?xml version="1.0" standalone="no"?>
<!DOCTYPE svg PUBLIC "-//W3C//DTD SVG 20010904//EN"
 "http://www.w3.org/TR/2001/REC-SVG-20010904/DTD/svg10.dtd">
<svg version="1.0" xmlns="http://www.w3.org/2000/svg"
 width="450.000000pt" height="450.000000pt" viewBox="0 0 450.000000 450.000000"
 preserveAspectRatio="xMidYMid meet">

<g transform="translate(0.000000,450.000000) scale(0.100000,-0.100000)"
fill="#000000" stroke="none">
<path d="M3634 4046 c-18 -8 -237 -219 -487 -470 -437 -436 -457 -458 -472
-509 -17 -60 -72 -157 -113 -199 l-26 -28 -21 20 c-12 11 -26 20 -32 20 -15 0
-123 -106 -123 -121 0 -8 31 -45 70 -84 l70 -70 -743 -742 -742 -743 -134 -83
-133 -84 -154 -179 -154 -179 77 -77 c74 -75 77 -76 97 -60 12 9 93 78 180
152 156 134 159 136 242 270 l84 135 743 742 742 743 70 -70 c39 -39 77 -70
84 -70 17 0 121 106 121 123 0 8 -9 22 -20 32 -19 17 -19 19 -3 38 32 36 133
95 200 118 65 21 66 22 519 474 296 296 460 466 469 489 19 45 19 97 1 140
-17 40 -205 234 -256 265 -41 24 -109 27 -156 7z"/>
</g>
</svg>
